<?xml version="1.0" encoding="utf-8"?>
<!-- Generator: Adobe Illustrator 16.0.0, SVG Export Plug-In . SVG Version: 6.00 Build 0)  -->
<!DOCTYPE svg PUBLIC "-//W3C//DTD SVG 1.1//EN" "http://www.w3.org/Graphics/SVG/1.1/DTD/svg11.dtd">
<svg version="1.1" id="motors_copy_2_1_" xmlns="http://www.w3.org/2000/svg" xmlns:xlink="http://www.w3.org/1999/xlink" x="0px"
	 y="0px" width="111px" height="24px" viewBox="0 0 111 24" enable-background="new 0 0 111 24" xml:space="preserve">
<g id="motors_copy_2">
	<g>
		<path fill-rule="evenodd" clip-rule="evenodd" fill="#FFFFFF" d="M0.488,23.194H6.72l2.525-9.381
			c0.021-0.077,0.047-0.145,0.07-0.219H3.061L0.488,23.194z M42.373,5.056c-5.937,0-10.43,4.953-10.43,10.3
			c0,4.69,3.28,8.266,8.692,8.266c5.97,0,10.463-4.953,10.463-10.332C51.098,8.631,47.818,5.056,42.373,5.056z M40.996,18.438
			c-1.837,0-3.083-1.279-3.083-3.313c0-2.296,1.673-4.887,4.133-4.887c1.837,0,3.083,1.279,3.083,3.28
			C45.128,15.847,43.456,18.438,40.996,18.438z M26.958,5.056c-2.591,0-4.756,1.181-6.429,3.083
			c-0.656-1.837-2.197-3.083-4.625-3.083c-2.099,0-3.739,1.115-4.953,2.361l0.525-1.968H5.244l-1.326,4.945h8.457l-0.173,0.231
			c0.097-0.009,0.188-0.027,0.291-0.027c1.279,0,1.903,0.689,1.903,1.87c0,0.394-0.099,0.983-0.23,1.443l-2.493,9.282h6.232
			l2.526-9.381c0.558-2.033,1.574-3.215,3.247-3.215c1.312,0,1.902,0.689,1.902,1.87c0,0.394-0.098,0.983-0.229,1.443l-2.46,9.282
			h6.199l2.591-9.644c0.295-1.115,0.525-2.263,0.525-3.214C32.206,7.09,30.336,5.056,26.958,5.056z M103.479,12.075
			c-1.837-0.722-2.46-1.083-2.46-1.673c0-0.623,0.524-1.017,1.541-1.017c1.607,0,3.477,0.754,5.019,1.902l2.985-3.739
			c-1.607-1.313-4.461-2.493-7.676-2.493c-2.989,0-5.213,1.034-6.492,2.645l0.688-2.546c-2.887-0.197-4.953,1.345-6.659,3.87
			l0.952-3.575h-6.232l-4.756,17.745h6.231l1.443-5.347c1.115-4.231,3.313-6.134,6.724-6.134h0.397
			c0.186,2.558,2.257,3.758,4.949,4.822c1.738,0.688,2.427,1.049,2.427,1.673c0,0.655-0.524,1.082-1.574,1.082
			c-1.805,0-4.198-0.853-5.904-2.395l-3.083,3.641c2.132,1.902,5.38,3.084,8.758,3.084c5.116,0,7.675-2.952,7.675-6.363
			C108.432,14.306,106.037,13.092,103.479,12.075z M73.336,5.056c-5.937,0-10.43,4.953-10.43,10.3c0,4.69,3.279,8.266,8.691,8.266
			c5.97,0,10.463-4.953,10.463-10.332C82.061,8.631,78.781,5.056,73.336,5.056z M71.959,18.438c-1.837,0-3.084-1.279-3.084-3.313
			c0-2.296,1.674-4.887,4.133-4.887c1.838,0,3.084,1.279,3.084,3.28C76.092,15.847,74.419,18.438,71.959,18.438z M58.084,17.126
			c0-0.262,0.066-0.656,0.164-1.082l1.51-5.576h4.133l1.344-5.019h-4.133l1.215-4.493h-6.232L54.87,5.449h-2.099l-1.345,5.019h2.099
			l-1.771,6.561c-0.229,0.853-0.328,1.606-0.328,2.328c0,2.624,1.771,4.198,5.378,4.198c1.279,0,2.559-0.229,3.674-0.623
			l1.378-5.183c-0.919,0.328-1.673,0.492-2.361,0.492C58.511,18.241,58.084,17.848,58.084,17.126z"/>
	</g>
</g>
</svg>
